<svg width="1304" height="272" viewBox="0 0 1304 272" fill="none" xmlns="http://www.w3.org/2000/svg">
<g filter="url(#filter0_d_715_968)">
<path d="M164.909 231.341H190.839C224.926 231.341 252.6 203.667 252.6 169.58V152.409C252.6 149.457 250.203 147.06 247.251 147.06H165.103C161.8 147.06 159.117 149.741 159.117 153.045V225.549C159.117 228.745 161.712 231.341 164.909 231.341Z" fill="#45BFE4"/>
<path fill-rule="evenodd" clip-rule="evenodd" d="M101.761 40H190.84C224.927 40 252.601 67.6738 252.601 101.761V118.932C252.601 121.884 250.204 124.281 247.252 124.281H45.9855C42.6818 124.281 40 121.599 40 118.296V101.761C40 67.6738 67.6738 40 101.761 40ZM97.3825 70.326H195.924C210.298 70.326 221.966 81.9955 221.966 96.3681V96.4705C221.966 97.5715 221.073 98.4652 219.972 98.4652H72.9334C71.6646 98.4652 70.6342 97.4668 70.6342 96.2375C70.6342 81.937 82.6196 70.326 97.3825 70.326Z" fill="#203554"/>
<path fill-rule="evenodd" clip-rule="evenodd" d="M130.055 231.341H101.761C67.6738 231.341 40 203.667 40 169.58V152.409C40 149.457 42.3971 147.06 45.3492 147.06H129.861C133.165 147.06 135.847 149.741 135.847 153.045V225.549C135.847 228.745 133.252 231.341 130.055 231.341ZM102.982 202.488H97.8555C82.8314 202.488 70.6342 190.74 70.6342 176.269C70.6342 175.209 71.5279 174.348 72.6289 174.348H102.913C104.183 174.348 105.213 175.379 105.213 176.648V200.258C105.213 201.488 104.214 202.488 102.982 202.488Z" fill="#203554"/>
<path d="M407.044 104.455V120.491H387.898V169.278H369.725V120.491H350.579V104.455H407.044ZM531.527 153.534V169.569H491.389V153.534H502.371V120.491H491.389V104.455H531.527V120.491H520.545V153.534H531.527ZM681.666 104.455V170.541H675.252L640.363 137.595V169.569H622.189V103.483H628.603L663.493 137.012V104.455H681.666ZM952.79 102.9C958.168 102.9 962.833 103.71 966.785 105.33C970.802 106.885 973.912 109.088 976.115 111.938C978.382 114.789 979.516 118.093 979.516 121.851C979.516 125.156 978.706 128.006 977.086 130.404C975.531 132.801 973.491 134.712 970.964 136.138C972.972 136.85 974.851 137.79 976.601 138.956C978.35 140.057 979.743 141.515 980.78 143.329C981.881 145.143 982.432 147.508 982.432 150.424C982.432 154.052 981.265 157.454 978.933 160.628C976.601 163.738 973.393 166.265 969.312 168.209C965.23 170.088 960.565 171.027 955.317 171.027C952.337 171.027 949 170.865 945.307 170.541C941.614 170.282 938.083 169.926 934.714 169.472C931.409 169.019 928.721 168.565 926.647 168.112V105.427C930.599 104.65 934.778 104.034 939.184 103.58C943.59 103.127 948.125 102.9 952.79 102.9ZM953.47 119.325C950.166 119.325 947.283 119.584 944.821 120.102V131.278H953.956C956.094 131.278 957.909 130.76 959.399 129.723C960.889 128.687 961.634 127.164 961.634 125.156C961.634 123.406 960.857 122.013 959.302 120.977C957.811 119.875 955.868 119.325 953.47 119.325ZM944.821 153.825C946.182 154.279 947.801 154.603 949.68 154.797C951.559 154.927 953.017 154.992 954.054 154.992C956.71 154.992 958.848 154.473 960.468 153.437C962.152 152.4 962.995 150.877 962.995 148.869C962.995 146.925 962.055 145.532 960.176 144.69C958.297 143.848 956.03 143.426 953.373 143.426H944.821V153.825ZM1108.37 153.534V169.569H1068.23V153.534H1079.22V120.491H1068.23V104.455H1108.37V120.491H1097.39V153.534H1108.37ZM1249.18 104.455V120.491H1230.04V169.278H1211.86V120.491H1192.72V104.455H1249.18Z" fill="#203554"/>
<path d="M802.262 102.997C806.667 102.997 810.879 103.775 814.896 105.33C818.978 106.82 822.606 109.023 825.781 111.938C828.955 114.854 831.45 118.417 833.264 122.629C835.143 126.84 836.082 131.635 836.082 137.012C836.082 144.528 834.333 150.91 830.834 156.158C827.336 161.341 822.897 165.196 817.52 167.723C820.306 169.278 823.448 170.217 826.947 170.541C830.51 170.865 834.171 171.027 837.929 171.027V186.188C834.041 186.188 829.895 185.637 825.489 184.536C821.083 183.499 816.839 181.847 812.758 179.579C808.741 177.312 805.242 174.461 802.262 171.027C797.856 171.027 793.612 170.282 789.53 168.792C785.513 167.237 781.918 165.002 778.743 162.086C775.568 159.171 773.041 155.607 771.162 151.396C769.348 147.184 768.441 142.39 768.441 137.012C768.441 131.635 769.348 126.84 771.162 122.629C773.041 118.417 775.568 114.854 778.743 111.938C781.918 109.023 785.513 106.82 789.53 105.33C793.612 103.775 797.856 102.997 802.262 102.997ZM802.262 120.005C799.346 120.005 796.755 120.75 794.487 122.24C792.219 123.73 790.405 125.771 789.044 128.363C787.749 130.89 787.101 133.773 787.101 137.012C787.101 140.252 787.749 143.167 789.044 145.759C790.405 148.286 792.219 150.294 794.487 151.784C796.755 153.275 799.346 154.02 802.262 154.02C805.177 154.02 807.769 153.275 810.037 151.784C812.369 150.294 814.183 148.286 815.479 145.759C816.775 143.167 817.423 140.252 817.423 137.012C817.423 133.773 816.775 130.89 815.479 128.363C814.183 125.771 812.369 123.73 810.037 122.24C807.769 120.75 805.177 120.005 802.262 120.005Z" fill="#45BFE4"/>
</g>
<defs>
<filter id="filter0_d_715_968" x="-4" y="0" width="1311.16" height="279.341" filterUnits="userSpaceOnUse" color-interpolation-filters="sRGB">
<feFlood flood-opacity="0" result="BackgroundImageFix"/>
<feColorMatrix in="SourceAlpha" type="matrix" values="0 0 0 0 0 0 0 0 0 0 0 0 0 0 0 0 0 0 127 0" result="hardAlpha"/>
<feOffset dy="4"/>
<feGaussianBlur stdDeviation="2"/>
<feComposite in2="hardAlpha" operator="out"/>
<feColorMatrix type="matrix" values="0 0 0 0 0 0 0 0 0 0 0 0 0 0 0 0 0 0 0.25 0"/>
<feBlend mode="normal" in2="BackgroundImageFix" result="effect1_dropShadow_715_968"/>
<feBlend mode="normal" in="SourceGraphic" in2="effect1_dropShadow_715_968" result="shape"/>
</filter>
</defs>
</svg>
